# xmcd
#
# Track frame offsets: 
#        183
#        40308
#        89583
#        126483
#        144558
#        170133
#        221283
#        258933
#        279183
#
# Disc length: 4104 seconds
#
# Revision: 3
# Processed by: cddbd v1.5.2PL0 Copyright (c) Steve Scherf et al.
# Submitted via: ExactAudioCopy v0.99pb5
#
DISCID=86100609
DTITLE=Mozart, Wolfgang Amadeus - Symphonies 32, 39 and 41 "Jupiter",  M
DTITLE=arriner Academy of St. Martin-in-the-Fields
DYEAR=1978
DGENRE=Classical
TTITLE0=Symphony No.32 in G - I. Allegro spiritoso - Andante - Tempo 1
TTITLE1=Symphony No.39 in E flat - I. Adagio - Allegro
TTITLE2=Symphony No.39 in E flat - II. Andante con moto
TTITLE3=Symphony No.39 in E flat - III. Menuetto (Allegretto)
TTITLE4=Symphony No.39 in E flat - IV. Finale (Allegro)
TTITLE5=Symphony No.41 in C - I. Allegro vivace
TTITLE6=Symphony No.41 in C - II. Andante cantabile
TTITLE7=Symphony No.41 in C - III. Menuetto (Allegretto)
TTITLE8=Symphony No.41 in C - IV. Molto allegro
EXTD=
EXTT0=
EXTT1=
EXTT2=
EXTT3=
EXTT4=
EXTT5=
EXTT6=
EXTT7=
EXTT8=
PLAYORDER=
